<svg width="24" height="22" viewBox="0 0 24 22" fill="none" xmlns="http://www.w3.org/2000/svg">
<path d="M15.8246 2.87976C11.7825 0.709385 8.15205 3.06063 6.84211 4.50754C3.47368 6.13549 4.03509 11.5611 4.03509 13.7315C4.03509 15.9018 6.84211 21.3278 14.7018 19.7C20.9895 18.3978 21.8129 13.7315 21.4386 11.5611L22 10.4759V8.30553L20.3158 8.84813C20.5029 7.763 19.8667 5.05014 15.8246 2.87976Z" fill="#FEE275"/>
<path d="M8.09084 15.3156C5.13636 11.6929 5.53023 7.89762 6.31811 6C5.53026 7.20758 3.71818 9.72624 2.77273 10.1403C1.82727 10.5543 1.19697 12.0379 1 12.7279C1.39394 12.2104 2.65455 12.1069 4.54545 15.8331C6.43636 19.5594 11.6364 20.1459 14 19.9734C13.4091 19.6284 10.8109 18.6508 8.09084 15.3156Z" fill="#EF8130"/>
<path fill-rule="evenodd" clip-rule="evenodd" d="M3.07794 9.15041C4.36247 4.84606 8.12998 1.25 12.7089 1.25C16.7219 1.25 19.7041 4.37173 21.1295 7.4341L21.9716 7.01331C22.1591 6.91958 22.3774 6.90865 22.5734 6.98317C22.7694 7.05769 22.9252 7.21086 23.0031 7.40552C23.1898 7.87184 23.3298 8.57976 23.1985 9.32131C23.0833 9.9722 22.758 10.6405 22.105 11.1593C22.1076 11.2334 22.1089 11.3071 22.1089 11.3803C22.1089 14.5965 21.0512 16.979 19.2121 18.5431C17.3933 20.09 14.9118 20.75 12.2161 20.75C9.53591 20.75 7.13027 20.1597 5.37949 18.7818C3.76189 17.5086 2.78733 15.6292 2.62286 13.1574L1.66698 13.3528C1.46152 13.3949 1.24785 13.3489 1.07779 13.2262C0.907742 13.1035 0.796841 12.9152 0.77199 12.7069C0.708065 12.1713 0.767631 11.3703 1.16404 10.6377C1.52207 9.9761 2.13786 9.40686 3.07794 9.15041ZM4.09799 12.3971C4.09862 14.8651 4.94624 16.5319 6.30721 17.6031C7.69804 18.6977 9.72646 19.25 12.2161 19.25C14.6903 19.25 16.7802 18.6424 18.2403 17.4005C19.6801 16.176 20.6089 14.2486 20.6089 11.3803C20.6089 11.2305 20.6017 11.0737 20.5871 10.9107L20.5821 10.8577C20.5534 10.5668 20.6962 10.2858 20.9481 10.1376C21.4504 9.84206 21.6526 9.44861 21.7215 9.05979C21.7368 8.97342 21.7454 8.88686 21.7485 8.80161L21.0867 9.13234C20.8981 9.22656 20.6786 9.23709 20.4819 9.16136C20.2852 9.08562 20.1295 8.93062 20.0528 8.73429L20.0104 8.62572L20.0096 8.62373C18.8256 5.6419 16.1141 2.75 12.7089 2.75C8.83759 2.75 5.45573 5.93466 4.41765 9.9292L4.41744 9.93002L4.40485 9.97898C4.3291 10.2735 4.08304 10.4931 3.78187 10.535C3.04252 10.6379 2.68032 10.9875 2.48328 11.3516C2.4254 11.4586 2.38011 11.5706 2.34546 11.683L3.19884 11.5085C3.42049 11.4632 3.65077 11.5203 3.82551 11.664C4.00024 11.8077 4.10078 12.0227 4.09909 12.2489L4.09799 12.3971ZM16.5 9C16.5 9.55229 16.0523 10 15.5 10C14.9477 10 14.5 9.55229 14.5 9C14.5 8.44772 14.9477 8 15.5 8C16.0523 8 16.5 8.44772 16.5 9ZM14 9.5C14 9.79867 13.8036 10.0668 13.4922 10.25C13.8036 10.4332 14 10.7013 14 11C14 11.5523 13.3284 12 12.5 12C11.6716 12 11 11.5523 11 11C11 10.7013 11.1964 10.4332 11.5078 10.25C11.1964 10.0668 11 9.79867 11 9.5C11 8.94772 11.6716 8.5 12.5 8.5C13.3284 8.5 14 8.94772 14 9.5ZM9.5 10C10.0523 10 10.5 9.55229 10.5 9C10.5 8.44772 10.0523 8 9.5 8C8.94771 8 8.5 8.44772 8.5 9C8.5 9.55229 8.94771 10 9.5 10Z" fill="#191919"/>
</svg>